<?xml version="1.0" encoding="utf-8"?>
<!-- Generator: Adobe Illustrator 28.0.0, SVG Export Plug-In . SVG Version: 6.00 Build 0)  -->
<svg version="1.1" id="Layer_1" xmlns="http://www.w3.org/2000/svg" xmlns:xlink="http://www.w3.org/1999/xlink" x="0px" y="0px"
	 viewBox="0 0 537.8 537.8" style="enable-background:new 0 0 537.8 537.8;" xml:space="preserve">
<style type="text/css">
	.st0{fill:#141414;}
</style>
<g id="Shape_1">
	<g>
		<path class="st0" d="M537.8,268.9C537.8,120.4,417.4,0,268.9,0S0,120.4,0,268.9s120.4,268.9,268.9,268.9
			c80.6,0,152.9-35.5,202.2-91.6l0,0l64.5,53.1l2.1-222.1l0,0C537.7,274.4,537.8,271.7,537.8,268.9z M269.5,409.6
			c-76.3,0-138.2-61.9-138.2-138.2c0-76.3,61.9-138.2,138.2-138.2c76.3,0,138.2,61.9,138.2,138.2
			C407.7,347.8,345.8,409.6,269.5,409.6z"/>
	</g>
</g>
</svg>
